<svg width="241" height="44" viewBox="0 0 241 44" fill="none" xmlns="http://www.w3.org/2000/svg">
<path d="M21.9352 0C9.82695 0 0 9.94394 0 22.2861C0 26.2052 0.994394 29.8903 2.74921 33.049C2.8077 31.9961 2.92469 31.0017 3.04168 29.9488C4.21155 19.8879 8.18913 8.54009 17.4896 3.50963C18.3085 3.04168 19.5954 3.56812 18.601 5.32293C17.3142 7.66268 16.3783 10.5874 16.2613 13.3366C18.6595 12.6931 21.1747 12.8686 24.5674 14.0385C25.9712 14.5065 25.5033 13.2781 22.4616 12.1082C23.7485 8.77407 26.0297 6.08335 29.2469 4.62101C30.1243 4.21155 30.5337 4.91348 30.1243 6.20034C30.0073 6.49281 29.3054 9.47599 29.0714 10.6459C28.311 14.7404 28.0185 18.8935 27.96 23.0465C30.6507 22.0522 32.8735 21.1163 34.3943 20.9993C35.3302 20.8823 37.3775 20.8238 37.3775 24.0994C37.3775 34.9793 25.4448 38.2549 20.4143 38.2549C18.718 38.2549 21.3502 39.6588 26.6147 39.3663L27.1996 43.8703C36.7926 41.4721 43.8703 32.698 43.8703 22.2861C43.8703 9.94394 34.0434 0 21.9352 0Z" fill="white"/>
<path d="M18.0161 18.7766C17.4312 18.7181 16.4368 19.4785 16.3783 20.4144C16.3198 21.4088 17.1972 22.2277 17.7821 22.2862C18.3671 22.3447 18.952 21.5843 19.0105 20.5899C19.069 19.654 18.6595 18.8351 18.0161 18.7766Z" fill="white"/>
<path d="M23.3977 20.5899C23.4562 19.5955 23.0467 18.7766 22.4033 18.7766C21.8184 18.7181 20.824 19.4785 20.7655 20.4144C20.707 21.4088 21.5844 22.2277 22.1693 22.2862C22.8128 22.3447 23.3392 21.5843 23.3977 20.5899Z" fill="white"/>
<path d="M35.915 25.211C36.266 24.743 36.2075 23.5146 35.4471 22.9297C34.6866 22.3448 33.5168 22.5787 33.1073 23.1052C32.7563 23.5731 33.0488 24.4505 33.8092 25.094C34.6281 25.6204 35.5641 25.7374 35.915 25.211Z" fill="white"/>
<path d="M55.3398 37.6243V24.3462H53V20.7196H55.3398V18.7308C55.3398 16.6835 55.8662 15.2212 56.9191 14.3437C57.972 13.4663 59.3758 13.0569 61.1306 13.0569H63.0024V16.8005H61.8326C61.0721 16.8005 60.5457 16.976 60.2532 17.2684C59.9608 17.5609 59.7853 18.0873 59.7853 18.7893V20.7781H63.4119V24.3462H59.7853V37.6243H55.3398Z" fill="white"/>
<path d="M68.735 18.0891C67.9161 18.0891 67.2727 17.8551 66.7463 17.3871C66.2198 16.9192 65.9858 16.3342 65.9858 15.5738C65.9858 14.8134 66.2198 14.2285 66.7463 13.7605C67.2727 13.2926 67.9161 13.0586 68.735 13.0586C69.554 13.0586 70.1974 13.2926 70.7238 13.7605C71.2503 14.2285 71.4843 14.8134 71.4843 15.5738C71.4843 16.3342 71.2503 16.9192 70.7238 17.3871C70.1974 17.8551 69.554 18.0891 68.735 18.0891ZM66.5708 37.626V20.7213H70.9578V37.626H66.5708Z" fill="white"/>
<path d="M82.2469 38.0353C80.6676 38.0353 79.2053 37.6259 77.9769 36.8655C76.7485 36.105 75.7541 35.0522 74.9937 33.7068C74.2918 32.3614 73.8823 30.8406 73.8823 29.1443C73.8823 27.448 74.2333 25.9271 74.9937 24.5818C75.6956 23.2364 76.69 22.1835 77.9769 21.4231C79.2053 20.6627 80.6676 20.2532 82.2469 20.2532C83.5338 20.2532 84.6452 20.4872 85.5811 20.9552C86.517 21.4231 87.3359 22.125 87.9208 22.9439V13H92.3079V37.5674H88.4473L87.9793 35.1691C87.4529 35.9296 86.6925 36.573 85.8151 37.1579C84.8792 37.7429 83.7093 38.0353 82.2469 38.0353ZM83.1828 34.2332C84.5867 34.2332 85.7566 33.7653 86.634 32.8294C87.5114 31.8935 87.9793 30.6651 87.9793 29.2028C87.9793 27.7404 87.5114 26.5121 86.634 25.5762C85.7566 24.6403 84.5867 24.1723 83.1828 24.1723C81.779 24.1723 80.6676 24.6403 79.7317 25.5762C78.7958 26.5121 78.3863 27.7404 78.3863 29.2028C78.3863 30.6651 78.8543 31.8935 79.7317 32.8294C80.6091 33.7653 81.779 34.2332 83.1828 34.2332Z" fill="white"/>
<path d="M103.48 38.0352C101.842 38.0352 100.38 37.6843 99.0347 36.9239C97.7478 36.1634 96.6949 35.1105 95.9345 33.8237C95.1741 32.4783 94.7646 30.9575 94.7646 29.2027C94.7646 27.4479 95.1741 25.927 95.9345 24.5817C96.6949 23.2363 97.7478 22.1834 99.0347 21.4815C100.322 20.7211 101.842 20.3701 103.422 20.3701C105.06 20.3701 106.522 20.7211 107.809 21.4815C109.096 22.2419 110.149 23.2948 110.909 24.5817C111.669 25.927 112.079 27.4479 112.079 29.2027C112.079 30.9575 111.669 32.4783 110.909 33.8237C110.149 35.169 109.096 36.2219 107.809 36.9239C106.58 37.6843 105.118 38.0352 103.48 38.0352ZM103.48 34.2331C104.592 34.2331 105.586 33.8237 106.463 32.9463C107.282 32.0689 107.75 30.8405 107.75 29.1442C107.75 27.4479 107.341 26.2195 106.463 25.3421C105.644 24.4647 104.65 24.0552 103.539 24.0552C102.369 24.0552 101.374 24.4647 100.556 25.3421C99.7366 26.2195 99.3272 27.4479 99.3272 29.1442C99.3272 30.8405 99.7366 32.0689 100.556 32.9463C101.374 33.8237 102.369 34.2331 103.48 34.2331Z" fill="white"/>
<path d="M124.246 37.626V24.3479H121.906V20.7213H124.246V18.7325C124.246 16.6852 124.772 15.2229 125.825 14.3455C126.878 13.468 128.282 13.0586 130.036 13.0586H131.908V16.8022H130.738C129.978 16.8022 129.451 16.9777 129.159 17.2701C128.867 17.5626 128.691 18.0891 128.691 18.791V20.7798H132.318V24.3479H128.691V37.626H124.246Z" fill="white"/>
<path d="M137.641 18.0891C136.822 18.0891 136.178 17.8551 135.652 17.3871C135.126 16.9192 134.892 16.3342 134.892 15.5738C134.892 14.8134 135.126 14.2285 135.652 13.7605C136.178 13.2926 136.822 13.0586 137.641 13.0586C138.46 13.0586 139.103 13.2926 139.63 13.7605C140.156 14.2285 140.39 14.8134 140.39 15.5738C140.39 16.3342 140.156 16.9192 139.63 17.3871C139.103 17.8551 138.46 18.0891 137.641 18.0891ZM135.477 37.626V20.7213H139.864V37.626H135.477Z" fill="white"/>
<path d="M143.373 37.6259V20.7212H147.234L147.585 23.5874C148.111 22.593 148.871 21.7741 149.866 21.1892C150.86 20.6042 152.03 20.3118 153.375 20.3118C155.481 20.3118 157.119 20.9552 158.23 22.3006C159.342 23.6459 159.985 25.5762 159.985 28.0914V37.6259H155.598V28.5009C155.598 27.0386 155.306 25.9272 154.721 25.1668C154.136 24.4063 153.2 23.9969 151.972 23.9969C150.743 23.9969 149.749 24.4063 148.93 25.2837C148.111 26.1611 147.76 27.331 147.76 28.9104V37.6259H143.373Z" fill="white"/>
<path d="M169.637 38.0353C168.175 38.0353 167.005 37.8013 166.069 37.3334C165.133 36.8654 164.431 36.222 163.963 35.4616C163.495 34.7011 163.261 33.8237 163.261 32.8878C163.261 31.3085 163.846 30.0216 165.075 29.0857C166.303 28.0913 168.116 27.6234 170.573 27.6234H174.843V27.2139C174.843 26.0441 174.492 25.2251 173.849 24.6402C173.205 24.1138 172.386 23.8213 171.392 23.8213C170.514 23.8213 169.754 24.0553 169.052 24.4647C168.409 24.8742 167.999 25.5176 167.824 26.3365H163.554C163.671 25.1082 164.08 24.0553 164.782 23.1194C165.484 22.1835 166.42 21.54 167.59 21.0136C168.701 20.5456 169.988 20.2532 171.392 20.2532C173.79 20.2532 175.72 20.8381 177.066 22.0665C178.47 23.2948 179.172 24.9912 179.172 27.1554V37.5673H175.428L175.194 34.8766C174.668 35.8125 173.966 36.5144 173.088 37.0994C172.152 37.7428 171.041 38.0353 169.637 38.0353ZM170.573 34.6426C171.801 34.6426 172.796 34.2332 173.498 33.4143C174.2 32.5954 174.609 31.601 174.784 30.3726H171.099C169.93 30.3726 169.111 30.6066 168.584 31.016C168.058 31.4255 167.824 31.9519 167.824 32.5954C167.824 33.2388 168.058 33.7652 168.584 34.1162C169.111 34.4672 169.754 34.6426 170.573 34.6426Z" fill="white"/>
<path d="M183.09 37.6259V20.7212H186.951L187.302 23.5874C187.828 22.593 188.589 21.7741 189.583 21.1892C190.578 20.6042 191.747 20.3118 193.093 20.3118C195.199 20.3118 196.836 20.9552 197.948 22.3006C199.059 23.6459 199.703 25.5762 199.703 28.0914V37.6259H195.316V28.5009C195.316 27.0386 195.023 25.9272 194.438 25.1668C193.853 24.4063 192.917 23.9969 191.689 23.9969C190.461 23.9969 189.466 24.4063 188.647 25.2837C187.828 26.1611 187.477 27.331 187.477 28.9104V37.6259H183.09Z" fill="white"/>
<path d="M211.811 38.0353C210.056 38.0353 208.535 37.6843 207.249 36.9239C205.903 36.1635 204.909 35.1106 204.148 33.7652C203.388 32.4199 202.979 30.899 202.979 29.1442C202.979 27.3894 203.388 25.8686 204.148 24.5232C204.909 23.1779 205.962 22.125 207.249 21.3646C208.594 20.6041 210.115 20.2532 211.811 20.2532C213.975 20.2532 215.789 20.8381 217.251 21.9495C218.713 23.0609 219.649 24.6402 220.059 26.629H215.438C215.204 25.8101 214.736 25.1667 214.092 24.6987C213.449 24.2308 212.63 23.9968 211.694 23.9968C210.466 23.9968 209.471 24.4647 208.652 25.3421C207.834 26.278 207.366 27.5064 207.366 29.1442C207.366 30.7821 207.775 32.0104 208.652 32.9463C209.471 33.8822 210.524 34.2917 211.694 34.2917C212.63 34.2917 213.39 34.0577 214.092 33.5898C214.736 33.1218 215.204 32.4784 215.438 31.6595H220.059C219.649 33.5898 218.713 35.1106 217.251 36.2805C215.789 37.4503 213.975 38.0353 211.811 38.0353Z" fill="white"/>
<path d="M231.874 38.0353C230.178 38.0353 228.657 37.6843 227.312 36.9239C225.966 36.222 224.972 35.1691 224.211 33.8822C223.451 32.5369 223.1 31.016 223.1 29.3197C223.1 27.5649 223.451 25.9856 224.211 24.6402C224.972 23.2949 225.966 22.242 227.253 21.423C228.54 20.6626 230.119 20.2532 231.874 20.2532C233.512 20.2532 234.974 20.6041 236.261 21.3646C237.548 22.0665 238.542 23.0609 239.244 24.3477C239.946 25.6346 240.297 27.0385 240.297 28.5593C240.297 28.7933 240.297 29.0857 240.297 29.3197C240.297 29.6122 240.297 29.9046 240.239 30.1971H227.37C227.487 31.5425 227.897 32.5369 228.774 33.2973C229.593 34.0577 230.587 34.4087 231.816 34.4087C232.693 34.4087 233.454 34.2332 234.038 33.8237C234.623 33.4143 235.091 32.8878 235.384 32.2444H239.829C239.537 33.2973 239.01 34.2917 238.25 35.1691C237.49 36.0465 236.612 36.7484 235.501 37.2164C234.448 37.8013 233.22 38.0353 231.874 38.0353ZM231.874 23.8798C230.821 23.8798 229.885 24.1723 229.066 24.7572C228.248 25.3421 227.721 26.278 227.487 27.5064H235.91C235.852 26.395 235.442 25.5176 234.682 24.8742C233.921 24.1723 232.986 23.8798 231.874 23.8798Z" fill="white"/>
</svg>
